<?xml version="1.0" encoding="utf-8"?><svg viewBox="0 0 800 800" xmlns="http://www.w3.org/2000/svg" xmlns:xlink="http://www.w3.org/1999/xlink"><style>:root>svg{display:none}:root>svg:target{display:block}</style><svg fill="none" viewBox="0 0 20 21" id="arrow-down-circle" xmlns="http://www.w3.org/2000/svg"><path d="M10 18.833a8.333 8.333 0 100-16.666 8.333 8.333 0 000 16.666z" stroke="currentColor" stroke-width="1.5" stroke-linecap="round" stroke-linejoin="round"/><path d="M6.667 10.5L10 13.833l3.333-3.333M10 7.167v6.666" stroke="currentColor" stroke-width="1.5" stroke-linecap="round" stroke-linejoin="round"/></svg><svg fill="none" viewBox="0 0 20 20" id="arrow-right-white" xmlns="http://www.w3.org/2000/svg"><path d="M4.167 10h11.666M10 4.167L15.833 10 10 15.834" stroke="#fff" stroke-width="1.2" stroke-linecap="round" stroke-linejoin="round"/></svg><svg fill="none" stroke="currentColor" stroke-width="2" stroke-linecap="round" stroke-linejoin="round" viewBox="0 0 24 24" id="arrow-top" xmlns="http://www.w3.org/2000/svg"><path d="M12 19V5M5 12l7-7 7 7"/></svg><svg viewBox="0 0 512 512" id="avatar" xmlns="http://www.w3.org/2000/svg"><circle fill="#333" cx="256" cy="114.526" r="114.526"/><path fill="#333" d="M256 256c-111.619 0-202.105 90.487-202.105 202.105 0 29.765 24.13 53.895 53.895 53.895h296.421c29.765 0 53.895-24.13 53.895-53.895C458.105 346.487 367.619 256 256 256z"/></svg><svg fill="none" viewBox="0 0 49 48" id="calendar" xmlns="http://www.w3.org/2000/svg"><path d="M38.5 8h-28a4 4 0 00-4 4v28a4 4 0 004 4h28a4 4 0 004-4V12a4 4 0 00-4-4zM6.5 20h36M32.5 4v8M16.5 4v8" stroke="#35657E" stroke-width="1.5" stroke-linecap="round" stroke-linejoin="round"/></svg><svg fill="none" viewBox="0 0 20 20" id="camera" xmlns="http://www.w3.org/2000/svg"><path d="M19.167 15.833A1.666 1.666 0 0117.5 17.5h-15a1.667 1.667 0 01-1.667-1.667V6.667A1.667 1.667 0 012.5 5h3.333L7.5 2.5h5L14.167 5H17.5a1.667 1.667 0 011.667 1.667v9.166z" stroke="#fff" stroke-width="1.2" stroke-linecap="round" stroke-linejoin="round"/><path d="M10 14.167A3.333 3.333 0 1010 7.5a3.333 3.333 0 000 6.667z" stroke="#fff" stroke-width="1.2" stroke-linecap="round" stroke-linejoin="round"/></svg><svg viewBox="0 0 50 50" id="check" xmlns="http://www.w3.org/2000/svg"><path fill="currentColor" d="M41.957 8.977a2 2 0 00-1.623.918l-18.83 28.384L9.326 27.502a2 2 0 10-2.652 2.996l13.9 12.299a2 2 0 002.992-.39l20.1-30.302a2 2 0 00-1.709-3.128z"/></svg><svg fill="none" viewBox="0 0 20 20" id="chevron-left" xmlns="http://www.w3.org/2000/svg"><path d="M12.5 15l-5-5 5-5" stroke="currentColor" stroke-width="1.2" stroke-linecap="round" stroke-linejoin="round"/></svg><svg fill="none" viewBox="0 0 20 20" id="chevron-right" xmlns="http://www.w3.org/2000/svg"><path d="M7.5 15l5-5-5-5" stroke="currentColor" stroke-width="1.2" stroke-linecap="round" stroke-linejoin="round"/></svg><svg fill="none" viewBox="0 0 20 20" id="chevron-right-and-white" xmlns="http://www.w3.org/2000/svg"><g filter="url(#ajfilter0_d_1093_8329)"><path d="M7.5 15l5-5-5-5" stroke="currentColor" stroke-width="1.2" stroke-linecap="round" stroke-linejoin="round" shape-rendering="crispEdges"/></g><defs><filter id="ajfilter0_d_1093_8329" x="6.9" y="4.4" width="7.2" height="11.199" filterUnits="userSpaceOnUse" color-interpolation-filters="sRGB"><feFlood flood-opacity="0" result="BackgroundImageFix"/><feColorMatrix in="SourceAlpha" values="0 0 0 0 0 0 0 0 0 0 0 0 0 0 0 0 0 0 127 0" result="hardAlpha"/><feOffset dx="1"/><feComposite in2="hardAlpha" operator="out"/><feColorMatrix values="0 0 0 0 1 0 0 0 0 1 0 0 0 0 1 0 0 0 1 0"/><feBlend in2="BackgroundImageFix" result="effect1_dropShadow_1093_8329"/><feBlend in="SourceGraphic" in2="effect1_dropShadow_1093_8329" result="shape"/></filter></defs></svg><svg fill="none" viewBox="0 0 20 20" id="close" xmlns="http://www.w3.org/2000/svg"><path d="M15 5L5 15M5 5l10 10" stroke="currentColor" stroke-width="1.5" stroke-linecap="round" stroke-linejoin="round"/></svg><svg viewBox="0 0 24 24" fill="none" id="download" xmlns="http://www.w3.org/2000/svg"><path d="M12 16V8M9 13l2.913 2.913v0a.123.123 0 00.174 0v0L15 13" stroke="currentColor" stroke-width="2" stroke-linecap="round" stroke-linejoin="round"/><path d="M3 15v4a2 2 0 002 2h14a2 2 0 002-2v-4" stroke="currentColor" stroke-width="2" stroke-linecap="round" stroke-linejoin="round"/></svg><svg fill="none" viewBox="0 0 17 16" id="facebook" xmlns="http://www.w3.org/2000/svg"><path d="M12.5 1.333h-2a3.333 3.333 0 00-3.333 3.333v2h-2v2.667h2v5.333h2.666V9.333h2l.667-2.667H9.833v-2A.667.667 0 0110.5 4h2V1.333z" stroke="currentColor" stroke-width="1.2" stroke-linecap="round" stroke-linejoin="round"/></svg><svg fill="none" viewBox="0 0 21 21" id="file" xmlns="http://www.w3.org/2000/svg"><path d="M11.167 2.167H5.334a1.667 1.667 0 00-1.667 1.666v13.334a1.667 1.667 0 001.667 1.666h10A1.667 1.667 0 0017 17.167V8l-5.833-5.833z" stroke="#000" stroke-width="1.5" stroke-linecap="round" stroke-linejoin="round"/><path d="M11.167 2.167V8H17" stroke="#000" stroke-width="1.5" stroke-linecap="round" stroke-linejoin="round"/></svg><svg fill="none" viewBox="0 0 20 21" id="file-plus" xmlns="http://www.w3.org/2000/svg"><path d="M11.667 2.167H5.001a1.667 1.667 0 00-1.667 1.666v13.334a1.666 1.666 0 001.667 1.666h10a1.667 1.667 0 001.666-1.666v-10l-5-5z" stroke="#fff" stroke-width="1.2" stroke-linecap="round" stroke-linejoin="round"/><path d="M10 15.5v-5M7.5 13h5M11.666 2.167v5h5" stroke="#fff" stroke-width="1.5" stroke-linecap="round" stroke-linejoin="round"/></svg><svg viewBox="0 0 20 20" id="full" xmlns="http://www.w3.org/2000/svg"><path d="M18.445 0H12v2h6v6h2V0h-1.555zM18 18h-6v2h8v-8h-2v6zM2 12H0v8h8v-2H2v-6zm0-4H0V0h8v2H2v6z" fill="currentColor" fill-rule="evenodd"/></svg><svg fill="none" viewBox="0 0 17 17" id="globe" xmlns="http://www.w3.org/2000/svg"><g clip-path="url(#aqclip0_1134_5343)" stroke="currentColor" stroke-linecap="round" stroke-linejoin="round"><path d="M8.25 15.167a6.667 6.667 0 100-13.333 6.667 6.667 0 000 13.333z" stroke-width="1.2"/><path d="M1.583 8.5h13.334M8.25 1.833A10.2 10.2 0 0110.917 8.5a10.2 10.2 0 01-2.667 6.667A10.2 10.2 0 015.583 8.5 10.2 10.2 0 018.25 1.833v0z" stroke-width="1.5"/></g><defs><clipPath id="aqclip0_1134_5343"><path fill="#fff" transform="translate(.25 .5)" d="M0 0h16v16H0z"/></clipPath></defs></svg><svg fill="none" viewBox="0 0 48 48" id="grid" xmlns="http://www.w3.org/2000/svg"><g opacity=".6" stroke="#35657E" stroke-width="1.5" stroke-linecap="round" stroke-linejoin="round"><path d="M20 6H6v14h14V6zM42 6H28v14h14V6zM42 28H28v14h14V28zM20 28H6v14h14V28z"/></g></svg><svg fill="none" viewBox="0 0 20 21" id="grid-small" xmlns="http://www.w3.org/2000/svg"><path d="M17.5 12.166h-5.834v5.833H17.5v-5.833zM8.333 12.166H2.5v5.833h5.833v-5.833zM17.5 3h-5.834v5.833H17.5V3zM8.333 3H2.5v5.833h5.833V3z" stroke="currentColor" stroke-width="1.2" stroke-linecap="round" stroke-linejoin="round"/></svg><svg fill="none" viewBox="0 0 20 20" id="hamburger" xmlns="http://www.w3.org/2000/svg"><path d="M2.5 10h15M2.5 5h15M2.5 15h15" stroke="currentColor" stroke-width="1.5" stroke-linecap="round" stroke-linejoin="round"/></svg><svg fill="none" viewBox="0 0 20 21" id="info" xmlns="http://www.w3.org/2000/svg"><path d="M10 18.833a8.333 8.333 0 100-16.667 8.333 8.333 0 000 16.667zM10 13.833V10.5M10 7.166h.009" stroke="currentColor" stroke-width="1.5" stroke-linecap="round" stroke-linejoin="round"/></svg><svg fill="none" viewBox="0 0 20 20" id="info-white" xmlns="http://www.w3.org/2000/svg"><path d="M10 18.333a8.333 8.333 0 100-16.667 8.333 8.333 0 000 16.667z" fill="#fff"/><path d="M10 13.333V10M10 6.666h.009" stroke="#000" stroke-width="1.5" stroke-linecap="round" stroke-linejoin="round"/></svg><svg fill="none" viewBox="0 0 17 16" id="instagram" xmlns="http://www.w3.org/2000/svg"><path d="M11.833 1.333H5.167a3.333 3.333 0 00-3.334 3.333v6.667a3.333 3.333 0 003.334 3.333h6.666a3.333 3.333 0 003.334-3.333V4.666a3.333 3.333 0 00-3.334-3.333z" stroke="currentColor" stroke-width="1.2" stroke-linecap="round" stroke-linejoin="round"/><path d="M11.167 7.58a2.667 2.667 0 11-5.276.782 2.667 2.667 0 015.276-.782zM12.167 4.333h.006" stroke="currentColor" stroke-width="1.2" stroke-linecap="round" stroke-linejoin="round"/></svg><svg fill="none" viewBox="0 0 17 16" id="map" xmlns="http://www.w3.org/2000/svg"><path d="M14.5 6.667c0 4.666-6 8.666-6 8.666s-6-4-6-8.667a6 6 0 1112 0z" stroke="currentColor" stroke-width="1.2" stroke-linecap="round" stroke-linejoin="round"/><path d="M8.5 8.666a2 2 0 100-4 2 2 0 000 4z" stroke="currentColor" stroke-width="1.5" stroke-linecap="round" stroke-linejoin="round"/></svg><svg fill="none" viewBox="0 0 20 20" id="minus" xmlns="http://www.w3.org/2000/svg"><path d="M4.166 10h11.667" stroke="#fff" stroke-width="1.5" stroke-linecap="round" stroke-linejoin="round"/></svg><svg fill="none" viewBox="0 0 49 48" id="nature-friendly" xmlns="http://www.w3.org/2000/svg"><g opacity=".6" clip-path="url(#azclip0_703_6949)" stroke="#35657E" stroke-width="1.5"><path d="M35.5 36c-5.174 5.745-16.533 6.467-22 1-5.467-5.468-5.934-18.746 6-22 11-3 18-10 18-10s8.805 19-2 31z"/><path d="M30.5 22c-2 3-5.704 5.866-9 7-4.71 1.62-13.91 6.334-15 13" stroke-linecap="round"/></g><defs><clipPath id="azclip0_703_6949"><path fill="#fff" transform="translate(.5)" d="M0 0h48v48H0z"/></clipPath></defs></svg><svg fill="none" viewBox="0 0 48 48" id="pen" xmlns="http://www.w3.org/2000/svg"><path d="M24 38l14-14 6 6-14 14-6-6z" stroke="#35657E" stroke-width="1.5" stroke-linecap="round" stroke-linejoin="round"/><path d="M36 26l-3-15L4 4l7 29 15 3 10-10zM4 4l15.172 15.172" stroke="#35657E" stroke-width="1.5" stroke-linecap="round" stroke-linejoin="round"/><path d="M22 26a4 4 0 100-8 4 4 0 000 8z" stroke="#35657E" stroke-width="1.5" stroke-linecap="round" stroke-linejoin="round"/></svg><svg fill="none" viewBox="0 0 16 17" id="phone" xmlns="http://www.w3.org/2000/svg"><path d="M14.667 11.78v2a1.332 1.332 0 01-1.454 1.334 13.193 13.193 0 01-5.753-2.047 13 13 0 01-4-4 13.193 13.193 0 01-2.047-5.78A1.333 1.333 0 012.74 1.834h2A1.333 1.333 0 016.073 2.98a8.56 8.56 0 00.467 1.874 1.333 1.333 0 01-.3 1.406l-.847.847a10.666 10.666 0 004 4l.847-.847a1.334 1.334 0 011.407-.3 8.562 8.562 0 001.873.467 1.334 1.334 0 011.147 1.353z" stroke="currentColor" stroke-width="1.2" stroke-linecap="round" stroke-linejoin="round"/></svg><svg fill="none" viewBox="0 0 24 24" id="play" xmlns="http://www.w3.org/2000/svg"><path d="M5 3l14 9-14 9V3z" stroke="currentColor" stroke-width="1.2" stroke-linecap="round" stroke-linejoin="round"/></svg><svg fill="none" viewBox="0 0 20 20" id="plus" xmlns="http://www.w3.org/2000/svg"><path d="M10 4.167v11.666M4.166 10h11.667" stroke="#fff" stroke-width="1.5" stroke-linecap="round" stroke-linejoin="round"/></svg><svg fill="none" viewBox="0 0 44 44" id="quotes" xmlns="http://www.w3.org/2000/svg"><path d="M12.507 34c-2.238 0-4.063-.67-5.476-2.007C5.677 30.596 5 28.793 5 26.582c0-.873.118-1.746.353-2.618.295-.931.618-1.804.972-2.618.353-.873.794-1.746 1.324-2.619L12.507 10h4.857v1.745l-3.091 8.291v.437a7.995 7.995 0 013.09.96c.766.465 1.473 1.134 2.12 2.007.648.873.971 2.066.971 3.578 0 1.978-.706 3.636-2.119 4.975C16.922 33.33 14.98 34 12.506 34zm11.48-10.124a18.4 18.4 0 01.883-2.53 18.23 18.23 0 011.325-2.619L31.052 10h4.857v1.745l-3.09 8.291v.437a7.995 7.995 0 013.09.96c.766.465 1.472 1.134 2.12 2.007.647.873.971 2.066.971 3.578 0 1.978-.706 3.636-2.12 4.975C35.468 33.33 33.526 34 31.052 34c-2.237 0-4.062-.67-5.475-2.007-1.355-1.397-2.032-3.2-2.032-5.411 0-.873.148-1.775.442-2.706z" stroke="#35657E" stroke-width="1.5" stroke-linejoin="round"/></svg><svg viewBox="0 0 88.1 88.1" id="sharing" xmlns="http://www.w3.org/2000/svg"><path fill="currentColor" d="M69.05 58.1c-4.8 0-9.1 2.3-11.8 5.8l-24.3-14.1c1.5-3.7 1.5-7.8 0-11.5l24.3-14.1c2.7 3.5 7 5.8 11.8 5.8 8.3 0 15-6.7 15-15s-6.7-15-15-15-15 6.7-15 15c0 2 .4 4 1.1 5.7l-24.3 14.2c-2.8-3.5-7-5.8-11.8-5.8-8.3 0-15 6.7-15 15s6.7 15 15 15c4.8 0 9.1-2.3 11.8-5.8l24.3 14.1c-.7 1.7-1.1 3.7-1.1 5.7 0 8.3 6.7 15 15 15s15-6.7 15-15-6.7-15-15-15zm0-54c6.1 0 11 4.9 11 11s-4.9 11-11 11-11-4.9-11-11 4.9-11 11-11zm-50 51c-6.1 0-11-4.9-11-11s4.9-11 11-11 11 4.9 11 11-4.9 11-11 11zm50 29c-6.1 0-11-4.9-11-11s4.9-11 11-11 11 4.9 11 11-4.9 11-11 11z"/></svg><svg fill="none" viewBox="0 0 188 186" id="slider-circle" xmlns="http://www.w3.org/2000/svg"><g filter="url(#bgfilter0_b_693_6144)"><mask id="bga" maskUnits="userSpaceOnUse" x="8" y="7" width="172" height="172" fill="#000"><path fill="#fff" d="M8 7h172v172H8z"/><path fill-rule="evenodd" clip-rule="evenodd" d="M94 178c46.944 0 85-38.056 85-85S140.944 8 94 8 9 46.056 9 93s38.056 85 85 85zm0-45c22.091 0 40-17.909 40-40s-17.909-40-40-40-40 17.909-40 40 17.909 40 40 40z"/></mask><path fill-rule="evenodd" clip-rule="evenodd" d="M94 178c46.944 0 85-38.056 85-85S140.944 8 94 8 9 46.056 9 93s38.056 85 85 85zm0-45c22.091 0 40-17.909 40-40s-17.909-40-40-40-40 17.909-40 40 17.909 40 40 40z" fill="#fff" fill-opacity=".1"/><path d="M178 93c0 46.392-37.608 84-84 84v2c47.496 0 86-38.504 86-86h-2zM94 9c46.392 0 84 37.608 84 84h2c0-47.496-38.504-86-86-86v2zM10 93C10 46.608 47.608 9 94 9V7C46.504 7 8 45.504 8 93h2zm84 84c-46.392 0-84-37.608-84-84H8c0 47.496 38.504 86 86 86v-2zm39-84c0 21.539-17.461 39-39 39v2c22.644 0 41-18.356 41-41h-2zM94 54c21.539 0 39 17.46 39 39h2c0-22.644-18.356-41-41-41v2zM55 93c0-21.54 17.46-39 39-39v-2c-22.644 0-41 18.356-41 41h2zm39 39c-21.54 0-39-17.461-39-39h-2c0 22.644 18.356 41 41 41v-2z" fill="#000" fill-opacity=".05" mask="url(#bga)"/></g><g fill="#000"><path d="M36.857 72.696l-.587-.236-1.18-2.953c-.056-.142-.117-.29-.182-.442a2.915 2.915 0 00-.25-.44 1.933 1.933 0 00-.326-.387 1.404 1.404 0 00-.445-.283c-.31-.124-.602-.119-.877.017-.276.135-.497.412-.665.83a2.409 2.409 0 00-.169.633 2.565 2.565 0 00-.025.51c.008.168.034.323.078.467l-.05.122-.538.068a3.014 3.014 0 01-.095-.588 4.24 4.24 0 01.03-.64c.03-.247.101-.512.215-.794.122-.304.27-.557.446-.758.172-.208.363-.362.573-.46a1.45 1.45 0 01.652-.164c.225-.01.452.03.68.121.212.085.399.201.56.348.157.145.295.305.414.479.114.172.213.35.296.535.084.185.158.36.224.525l.97 2.395 1.208-2.987.587.235-1.544 3.847zM39.043 63.975l-.453-.27-1.938-4.728.328-.551.159.094 1.8 4.392 1.141-1.917-1.607-.956.336-.566 1.608.956.516-.868.543.324-.516.867 1.32.786-.336.566-1.32-.786-1.58 2.657zM48.212 44.73l.444.45-2.296 2.272 3.879 3.92-.468.463-4.324-4.369 2.764-2.736zM53.683 42.371a2.873 2.873 0 01-.04-1.18 2.9 2.9 0 01.452-1.105c.23-.345.54-.653.93-.924.39-.27.787-.453 1.19-.548.405-.096.8-.106 1.186-.032.388.065.755.213 1.1.444.346.23.653.54.924.93.27.39.453.786.548 1.19.096.405.108.802.038 1.194-.07.382-.22.746-.45 1.092-.23.345-.54.653-.93.924-.39.27-.786.453-1.19.548-.405.095-.8.11-1.188.044a2.967 2.967 0 01-1.098-.456 3.493 3.493 0 01-.924-.93 3.494 3.494 0 01-.548-1.19zm1.111.8c.22.318.469.573.745.766.282.19.576.316.884.38.31.056.622.049.938-.02.317-.078.627-.222.93-.432.302-.21.543-.449.722-.715.18-.275.295-.565.346-.871a2.298 2.298 0 00-.047-.962c-.08-.33-.23-.653-.45-.97a2.886 2.886 0 00-.752-.76 2.213 2.213 0 00-.88-.374 2.102 2.102 0 00-.937.02c-.315.07-.624.21-.927.42-.303.21-.544.453-.724.727a2.2 2.2 0 00-.347.871c-.051.307-.037.625.042.954.085.327.237.649.457.966zM66.105 39.728l.52 1.162-.6.27-.78-1.74.441-.197c.066-.197.083-.467.05-.812a6.32 6.32 0 00-.24-1.181 14.679 14.679 0 00-.703-1.87l-.664-1.482 3.55-1.59 2.255 5.032.68-.305.78 1.74-.601.268-.52-1.162-4.168 1.867zm.2-.734l.359-.21 2.669-1.194-1.996-4.456-2.348 1.052.405.905c.333.743.566 1.363.7 1.861.13.494.21.887.24 1.182.035.35.02.623-.047.82l.018.04zM76.002 29.515l.639-.162 3.938 5.118.054.213-.57.144-1.255-1.63-2.894.732-.32 2.028-.58.147-.053-.213 1.041-6.377zm.023 3.78l2.384-.603-1.695-2.225-.22-.37-.043.01-.027.433-.399 2.755zM92.361 33.485l-.658-.016.152-6.145.659.016-.069 2.748 3.45.085.068-2.747.659.016-.153 6.145-.658-.016.069-2.765-3.45-.086-.069 2.765zM104.905 28.52l.646.13 1.347 6.315-.044.215-.576-.115-.429-2.012-2.928-.588-1.163 1.692-.586-.117.044-.216 3.689-5.304zm-1.609 3.42l2.41.484-.57-2.738-.039-.43-.043-.008-.21.379-1.548 2.313zM122.305 34.474c.292.15.536.329.731.54.195.21.334.44.419.686a1.7 1.7 0 01.105.762c-.015.262-.088.52-.218.776s-.298.47-.503.641c-.198.169-.424.29-.678.364-.247.072-.512.091-.798.058a2.577 2.577 0 01-.866-.273l-1.565-.797-.979 1.925-.587-.298 2.787-5.478 2.152 1.094zm-3.086 2.194l1.565.796c.204.104.402.165.596.185.193.02.375.004.546-.047.176-.049.332-.13.469-.244a1.35 1.35 0 00.337-.43 1.36 1.36 0 00.149-.525 1.142 1.142 0 00-.079-.523 1.406 1.406 0 00-.283-.47 1.7 1.7 0 00-.5-.372l-1.566-.796-1.234 2.426zM129.23 41.204l1.175.906c.269.207.478.434.627.682.157.247.259.499.305.756a1.72 1.72 0 01-.033.762c-.059.25-.173.483-.341.701-.168.218-.367.39-.597.516a1.74 1.74 0 01-.723.219c-.26.021-.531-.01-.813-.095a2.591 2.591 0 01-.808-.434l-1.704-1.313 3.751-4.869.522.402-1.361 1.767zm-.822 3.513c.181.139.367.238.558.297.191.058.374.08.547.066.182-.015.349-.064.501-.146a1.222 1.222 0 00.627-.814c.044-.173.049-.346.014-.521a1.386 1.386 0 00-.199-.52 1.772 1.772 0 00-.43-.463l-1.182-.911-1.619 2.1 1.183.912zm2.118 2.43l3.752-4.87.521.402-3.751 4.87-.522-.402zM135.689 52.002l-.438-.492 4.586-4.092.438.491-2.051 1.83 2.298 2.575 2.051-1.83.438.491-4.586 4.093-.438-.492 2.063-1.841-2.297-2.575-2.064 1.842zM147.3 56.798l-2.314 1.434.556.896 3.53.528.334.537-.187.116-3.562-.53-1.242 3.613-.186.115-.348-.56 1.17-3.411-.602-.97-2.373 1.472-.347-.56 5.224-3.24.347.56zM149.597 67.986l-2.04.834 1.345 3.292-.585.239-1.595-3.901 5.69-2.326 1.562 3.82-.586.24-1.312-3.211-1.894.774 1.097 2.682-.586.24-1.096-2.683z"/><circle opacity=".4" cx="153.938" cy="85.571" r="1.314"/><circle opacity=".4" cx="32.991" cy="85.571" r="1.314"/><path d="M155.222 104.379a2.415 2.415 0 01-.271.82 1.813 1.813 0 01-.489.572c-.19.154-.405.26-.645.317a1.84 1.84 0 01-.76.033 1.85 1.85 0 01-.715-.263 1.685 1.685 0 01-.526-.5 1.886 1.886 0 01-.283-.693 2.39 2.39 0 01-.009-.854l.424-2.716 6.073.949-.67 4.294-.625-.097.569-3.644-1.752-.274-.321 2.056zm-.304-2.153l-2.447-.382-.322 2.064c-.066.423-.005.77.184 1.042.194.274.471.438.829.494.365.057.678-.016.941-.217.262-.202.427-.517.494-.945l.321-2.056zM152.758 111.122l-2.107-.647-1.044 3.399-.604-.185 1.237-4.029 5.876 1.805-1.212 3.945-.604-.186 1.018-3.315-1.955-.601-.851 2.77-.605-.186.851-2.77zM149.985 120.282c-.205.44-.266.806-.182 1.097a.984.984 0 00.552.645c.292.136.58.141.865.015.282-.12.526-.401.731-.841.116-.25.195-.481.236-.694.041-.214.063-.4.067-.56a2.144 2.144 0 00-.034-.51l.056-.119.549-.035c.031.196.045.409.041.639a4.722 4.722 0 01-.087.686c-.05.261-.146.542-.287.845-.148.318-.315.58-.501.784a1.88 1.88 0 01-.588.452 1.438 1.438 0 01-1.258-.004c-.27-.126-.462-.284-.574-.472a1.588 1.588 0 01-.204-.54 1.837 1.837 0 01.022-.629l-.04-.019a1.98 1.98 0 01-.513.478c-.17.102-.374.172-.611.21-.237.038-.504-.013-.802-.151a1.774 1.774 0 01-.585-.428 1.51 1.51 0 01-.331-.619 1.973 1.973 0 01-.034-.801c.039-.291.138-.61.299-.955a4.045 4.045 0 01.9-1.266 2.45 2.45 0 01.489-.363l.533.248-.067.143a3.663 3.663 0 00-.48.367 4.593 4.593 0 00-.428.46 3.225 3.225 0 00-.406.663c-.227.489-.294.896-.201 1.224.092.327.293.563.601.706.153.072.31.109.47.113.16.003.315-.031.465-.104.15-.072.293-.186.43-.341.137-.156.263-.356.377-.6l.407-.876.542.252-.419.9zM143.181 125.502l.334-.516.184.119 1.047 1.858 4.438.171.184.12-.357.553-3.656-.168-.337-.092-.019.029.223.27 1.773 3.08-.334.516-.184-.119-3.296-5.821zM140.66 138.765l-4.633-4.039.433-.496 4.156 3.624 2.268-2.602-4.157-3.623.433-.497 4.633 4.039-3.133 3.594zM135.306 143.718c-.25.213-.51.368-.779.467-.27.099-.535.14-.795.123a1.71 1.71 0 01-.744-.196 1.946 1.946 0 01-.633-.5 1.995 1.995 0 01-.397-.711 1.814 1.814 0 01-.076-.766c.029-.255.114-.508.254-.758.141-.25.336-.482.585-.694l1.337-1.139-1.4-1.644.502-.427 3.984 4.68-1.838 1.565zm-.838-3.692l-1.337 1.138a1.7 1.7 0 00-.4.479 1.395 1.395 0 00-.166.522 1.23 1.23 0 00.045.527c.053.17.142.329.267.476.125.147.267.261.427.34.164.084.335.126.513.128.178.01.359-.017.542-.081a1.69 1.69 0 00.537-.318l1.337-1.139-1.765-2.072zM127.233 145.602l-1.175-1.865-3.009 1.895-.337-.535 3.566-2.246 3.276 5.201-3.492 2.199-.337-.535 2.935-1.848-1.09-1.731-2.452 1.544-.337-.535 2.452-1.544zM119.606 149.988c-.361-.134-.78-.095-1.256.116a2.86 2.86 0 00-.557.325 4.087 4.087 0 00-.425.363c-.134.13-.251.269-.352.416l1.268 2.848-.602.268-2.5-5.615.601-.268.829 1.861.156.459.04-.018c.07-.146.173-.295.311-.446a3.66 3.66 0 01.467-.419c.193-.144.433-.28.722-.408.289-.129.567-.202.835-.218.271-.012.523.03.757.124.235.094.449.239.645.434.191.197.351.442.482.737l.85 1.909-.601.268-.85-1.91c-.189-.422-.462-.698-.82-.826zM110.509 150.293l.634-.176 1.642 5.923-.634.176-.734-2.648-3.326.922.734 2.648-.634.176-1.642-5.923.634-.176.739 2.665 3.326-.922-.739-2.665zM101.621 158.422l-.654.08-3.266-5.571-.026-.218.584-.071 1.04 1.774 2.963-.363.572-1.972.593-.073.027.218-1.833 6.196zm.451-3.753l-2.44.299 1.402 2.42.173.395.043-.006.081-.425.741-2.683zM93.915 157.766a1.772 1.772 0 01-.446.611c-.198.171-.43.302-.696.395-.266.098-.56.143-.882.135l-2.37-.063.163-6.145.658.018-.058 2.194 1.773.047 1.577-2.154.659.018-.006.219-1.53 2.041c.26.107.488.247.682.422.172.151.328.349.468.592.134.244.196.542.187.893a1.92 1.92 0 01-.179.777zm-.884-1.754a1.405 1.405 0 00-.449-.302 1.648 1.648 0 00-.603-.121l-1.712-.046-.07 2.686 1.71.046c.223.006.426-.024.61-.09.177-.065.332-.158.464-.277.131-.114.235-.252.31-.414a1.32 1.32 0 00.118-.524 1.323 1.323 0 00-.09-.529 1.196 1.196 0 00-.288-.429zM76.41 156.631a2.57 2.57 0 01-.826-.374 1.935 1.935 0 01-.554-.584 1.705 1.705 0 01-.262-.724 1.944 1.944 0 01.05-.804c.074-.277.193-.521.358-.731.158-.207.354-.373.587-.499.226-.121.482-.196.768-.223.286-.027.587.002.904.086l1.697.452.555-2.088.637.169-1.58 5.94-2.333-.62zm2.56-2.79l-1.697-.452a1.712 1.712 0 00-.621-.056 1.383 1.383 0 00-.525.161 1.227 1.227 0 00-.407.337c-.11.14-.19.303-.24.49-.05.187-.061.368-.035.545.024.182.086.347.186.495.093.152.218.285.375.399.158.115.347.201.567.26l1.697.451.7-2.63zM70.267 151.066l.864-2.027-3.271-1.395.248-.582 3.877 1.653-2.41 5.655-3.797-1.619.248-.582 3.19 1.361.803-1.882-2.666-1.137.248-.581 2.666 1.136zM57.396 148.021l3.193-5.253.563.342-2.865 4.712 2.949 1.793 2.864-4.712.563.342-3.193 5.252-4.074-2.476zM56.483 139.645l.474.391-.14.17-1.966.825-.681 4.389-.14.169-.508-.419.587-3.612.131-.324-.027-.023-.293.191-3.264 1.406-.475-.391.14-.17 6.162-2.602zM47.745 139.21l-.465.428-3.24-3.523.466-.428 1.397 1.519 4.059-3.733.446.485-4.06 3.733 1.397 1.519zM40.036 130.817l-.372-.544 3.442-5.464.181-.124.333.486-1.097 1.74 1.687 2.463 2.014-.399.337.492-.181.124-6.344 1.226zm3.54-1.328l-1.39-2.028-1.502 2.359-.271.334.024.037.415-.125 2.723-.577zM34.195 120.482l-.288-.592 4.961-2.408-.295-.608 1.714-.832.288.592-1.146.556 2.052 4.226-5.53 2.684-.288-.592 4.961-2.408-1.468-3.026-4.961 2.408zM36.229 113.276l.65-.13-.014-.042-5.987-1.843-.194-.62 5.866-1.836.197.628-4.3 1.346-.649.13.013.041 5.987 1.843.194.621-5.865 1.836-.197-.629 4.299-1.345zM30.85 105.851a1.773 1.773 0 01-.683-.329 2.107 2.107 0 01-.513-.613 2.344 2.344 0 01-.292-.843l-.365-2.342 6.073-.949.101.651-2.169.339.274 1.752 2.403 1.163.102.65-.217.034-2.284-1.136a2.328 2.328 0 01-.292.747 2.319 2.319 0 01-.498.567c-.215.176-.497.291-.844.345a1.93 1.93 0 01-.796-.036zm1.565-1.186c.102-.146.174-.312.216-.496.041-.19.045-.395.01-.615l-.264-1.692-2.654.415.264 1.692c.034.219.1.414.198.582.096.163.215.298.356.406.136.11.29.186.463.23.172.044.351.052.537.023a1.32 1.32 0 00.504-.185 1.21 1.21 0 00.37-.36z"/></g><g filter="url(#bgfilter1_b_693_6144)"><rect x="62" y="61" width="64" height="64" rx="32" fill="#fff" fill-opacity=".8"/><path opacity=".6" d="M98.79 85.276l-2.969-.414-1.34-2.687a.552.552 0 00-.989.006l-1.319 2.692-2.968.447a.551.551 0 00-.304.944l2.158 2.085-.491 2.996a.552.552 0 00.54.656c.09.002.18-.02.26-.06L94 90.5l2.682 1.396a.553.553 0 00.552-.045.551.551 0 00.22-.551l-.551-2.957 2.14-2.103a.552.552 0 00-.253-.965zm-2.809 2.483a.551.551 0 00-.16.49l.386 2.141-1.931-1.004a.551.551 0 00-.513 0l-1.926 1.02.359-2.14a.552.552 0 00-.16-.49l-1.562-1.507 2.152-.326a.553.553 0 00.414-.303l.96-1.948.971 1.943a.55.55 0 00.42.297l2.146.304-1.556 1.523zm13.894-6.147a.538.538 0 00-.424-.198h-5.855l.336-3.813a.56.56 0 00-.142-.422.559.559 0 00-.409-.179H84.619a.552.552 0 00-.552.601l.337 3.813H78.55a.553.553 0 00-.424.198.55.55 0 00-.116.447l.408 2.318a9.03 9.03 0 007.494 7.393 8.96 8.96 0 005.33 4.65v7.063h-4.139a2.756 2.756 0 00-2.759 2.758v2.207a.55.55 0 00.552.552h18.21a.551.551 0 00.552-.552v-2.207c0-.731-.291-1.433-.809-1.95a2.755 2.755 0 00-1.95-.808h-4.139v-7.062a8.962 8.962 0 005.33-4.651 9.033 9.033 0 007.494-7.393l.408-2.318a.553.553 0 00-.116-.447zm-30.376 2.56l-.293-1.655h5.297l.552 6.147c.028.292.072.579.127.86l.05.26c.05.204.1.408.16.612 0 .05 0 .105.038.154a7.95 7.95 0 01-5.931-6.378zm23.054 22.069v1.656H85.447v-1.656a1.653 1.653 0 011.655-1.655h13.796a1.655 1.655 0 011.655 1.655zm-6.898-9.379v6.621h-3.31v-6.62h3.31zM94 95.76a7.891 7.891 0 01-7.852-7.173l-.585-6.62-.342-3.862h17.558l-.927 10.482a7.741 7.741 0 01-.634 2.489A7.903 7.903 0 0194 95.758zm14.501-11.587a7.94 7.94 0 01-5.926 6.372 9.078 9.078 0 00.381-1.88l.552-6.147h5.297l-.304 1.655z" fill="#000"/><rect x="61.5" y="60.5" width="65" height="65" rx="32.5" stroke="#000" stroke-opacity=".05"/></g><defs><filter id="bgfilter0_b_693_6144" x="-16" y="-17" width="220" height="220" filterUnits="userSpaceOnUse" color-interpolation-filters="sRGB"><feFlood flood-opacity="0" result="BackgroundImageFix"/><feGaussianBlur in="BackgroundImageFix" stdDeviation="12"/><feComposite in2="SourceAlpha" operator="in" result="effect1_backgroundBlur_693_6144"/><feBlend in="SourceGraphic" in2="effect1_backgroundBlur_693_6144" result="shape"/></filter><filter id="bgfilter1_b_693_6144" x="37" y="36" width="114" height="114" filterUnits="userSpaceOnUse" color-interpolation-filters="sRGB"><feFlood flood-opacity="0" result="BackgroundImageFix"/><feGaussianBlur in="BackgroundImageFix" stdDeviation="12"/><feComposite in2="SourceAlpha" operator="in" result="effect1_backgroundBlur_693_6144"/><feBlend in="SourceGraphic" in2="effect1_backgroundBlur_693_6144" result="shape"/></filter></defs></svg><svg fill="none" viewBox="0 0 48 48" id="thumbs-up" xmlns="http://www.w3.org/2000/svg"><path d="M14 44H8a4 4 0 01-4-4V26a4 4 0 014-4h6m14-4v-8a6 6 0 00-6-6l-8 18v22h22.56a4 4 0 004-3.4l2.76-18a4.001 4.001 0 00-4-4.6H28z" stroke="#35657E" stroke-width="1.5" stroke-linecap="round" stroke-linejoin="round"/></svg><svg fill="none" viewBox="0 0 16 17" id="tiktok" xmlns="http://www.w3.org/2000/svg"><g clip-path="url(#biclip0_1596_9022)" stroke="currentColor" stroke-width="1.2"><path d="M6.333 7.626a3.667 3.667 0 110 7.333 3.667 3.667 0 010-7.333h0z"/><path d="M13.667 6.293A3.667 3.667 0 0110 2.626" stroke-linecap="round" stroke-linejoin="round"/><path d="M10 2.96v8"/></g><defs><clipPath id="biclip0_1596_9022"><path fill="currentColor" transform="translate(0 .96)" d="M0 0h16v16H0z"/></clipPath></defs></svg><svg fill="none" viewBox="0 0 49 48" id="user" xmlns="http://www.w3.org/2000/svg"><path d="M40.5 42v-4a8 8 0 00-8-8h-16a8 8 0 00-8 8v4M24.5 22a8 8 0 100-16 8 8 0 000 16z" stroke="#35657E" stroke-width="1.5" stroke-linecap="round" stroke-linejoin="round"/></svg><svg fill="none" viewBox="0 0 16 17" id="youtube" xmlns="http://www.w3.org/2000/svg"><path d="M14.073 4.415a2.657 2.657 0 00-.404-1.033 1.612 1.612 0 00-.713-.606c-.99-.344-4.952-.344-4.952-.344s-3.96 0-4.95.377c-.272.11-.518.318-.714.606a2.658 2.658 0 00-.404 1.033 33.586 33.586 0 00-.265 4.334 33.587 33.587 0 00.265 4.367c.076.377.218.72.414.995.195.275.438.474.703.578.99.377 4.951.377 4.951.377s3.962 0 4.952-.377c.27-.11.517-.318.713-.606.196-.288.335-.644.404-1.033.18-1.42.268-2.859.264-4.301a33.587 33.587 0 00-.264-4.367z" stroke="currentColor" stroke-width="1.2" stroke-linecap="round" stroke-linejoin="round"/><path d="M6.5 10.973l3.833-2.18L6.5 6.613v4.36z" stroke="currentColor" stroke-width="1.2" stroke-linecap="round" stroke-linejoin="round"/></svg></svg>